<svg id="Layer_1" data-name="Layer 1" xmlns="http://www.w3.org/2000/svg" viewBox="0 0 1280 720"><defs><style>.cls-1{fill:none;stroke:#000;stroke-miterlimit:10;}</style></defs><title>22Artboard 1</title><rect class="cls-1" x="75.42" y="120.35" width="1133.56" height="563.37"/><path d="M553.63,32.74,541.42,90.19h-7.53L546.1,32.74Z"/><path d="M555.57,59.55c1.87-8.94,2.44-11.64,2.79-13.57h7.36c-.15,1.09-.29,2.15-.62,3.65a10,10,0,0,1,8.44-4.33c5.35,0,8.11,3.89,6.66,10.7l-7.29,34.19h-7.53l6.87-32.4c.89-4.11,0-6.16-2.85-6.16-3.16,0-5.11,2.5-6.49,9.1l-6.29,29.46h-7.54Z"/><path d="M593.43,46c-.71,14.25-1.2,29.86-2,35.47h.09c1.57-5.3,10.05-26.72,13.35-35.47h7.82L593.65,90.19h-8.07L586.05,46Z"/><path d="M618.58,69.93c-.13.57-1.36,6.42-1.52,7.14-.89,4.15-.69,7.56,2.93,7.56,3.36,0,4.3-3.19,5-6.27l.26-1.24h7.41l-.22,1c-1.35,6.31-3.48,12.74-13.12,12.74-10.72,0-10.91-8.33-9.3-15.84l3.29-15.52c1.44-6.89,3.83-14.16,13.52-14.16,10.5,0,11.17,7.56,9.61,14.89-.13.6-1.92,9-2.07,9.68Zm9.75-6.07c.1-.51,1.17-5.58,1.28-6.07.69-3.46.24-6.49-3.2-6.49s-4.54,3.05-5.28,6.6l-1.29,6Z"/><path d="M642.94,59.55c1.87-8.94,2.45-11.64,2.79-13.57h7.36c-.15,1.09-.28,2.15-.62,3.65a10,10,0,0,1,8.45-4.33c5.35,0,8.11,3.89,6.65,10.7l-7.28,34.19h-7.53l6.87-32.4c.88-4.11,0-6.16-2.86-6.16-3.16,0-5.11,2.5-6.48,9.1L644,90.19h-7.53Z"/><path d="M673.46,46h4.79l2.5-10.87h7.45L685.73,46h5.72l-1.38,6.49h-5.73l-6.21,28.15c-.53,2.58-.23,4,2.4,4a16.09,16.09,0,0,0,2.9-.25l-1.27,5.81a20.75,20.75,0,0,1-5.11.61c-5,0-8.28-1.78-6.72-9.06l6.42-29.3h-4.68Z"/><path d="M716.18,59.86,712.58,77c-2,9.49-5.11,13.93-13.86,13.93-8.19,0-12-5-10-14.45l3.84-18c1.68-8,5.2-13.09,13.67-13.09S718,50.87,716.18,59.86Zm-16-1.47L696,77.74c-.95,4.43.33,6.83,3.46,6.83,2.93,0,4.31-2.12,5.31-6.77l4.1-19.14c.86-4,.37-7-3.4-7C702.15,51.61,701,54.38,700.15,58.39Z"/><path d="M722.55,61c1.52-7.25,2.53-11.89,3.05-15h7.14a55.53,55.53,0,0,1-1.12,6.55c2.41-5.36,6.51-7.13,10.43-7.18l-2,8.89c-5.83.09-9.31,3.06-11.05,11.31l-5.15,24.64h-7.53Z"/><path d="M752.54,46c-.3,11.24-1.08,30.83-1.66,35.59H751c2.82-9,8.85-24.79,13.09-35.59h7.64L752.33,92.43c-5.17,12.3-8.47,13.22-13.69,13.22a20.94,20.94,0,0,1-4.43-.52l1.53-6.69a11.93,11.93,0,0,0,2.79.28c2.74,0,3.93-1.25,6.29-7L745.16,46Z"/></svg>